<?xml version="1.0" standalone="no"?><!DOCTYPE svg PUBLIC "-//W3C//DTD SVG 1.1//EN" "http://www.w3.org/Graphics/SVG/1.1/DTD/svg11.dtd"><svg t="1617119910570" class="icon" viewBox="0 0 1024 1024" version="1.1" xmlns="http://www.w3.org/2000/svg" p-id="1781" width="128" height="128" xmlns:xlink="http://www.w3.org/1999/xlink"><defs><style type="text/css"></style></defs><path d="M962.039224 428.327826H759.182362a18.612429 18.612429 0 1 0 0 37.224858h169.410328l53.957431 502.53558H42.212989l63.338095-502.53558h169.708127a18.612429 18.612429 0 1 0 0-37.224858H72.71876L0 1005.313121h1024l-61.960776-576.985295z" fill="#49af08" p-id="1782"></path><path d="M496.09568 725.289129c-2.736027 1.619281-5.658178 3.052438-8.282531 4.746169-4.094734 2.642965-8.096407 5.416217-12.023629 8.282531a18.631041 18.631041 0 0 0 22.037115 30.021848 201.684279 201.684279 0 0 1 29.072614-17.867932 18.482142 18.482142 0 0 0 8.598942-23.619172c0.148899-0.148899 0.335024-0.260574 0.465311-0.409474 33.669884-35.661414 147.13125-169.298653 194.109021-391.940527 9.529564-45.153752 11.669993-88.483487 6.365451-128.779396-16.006689-122.37672-92.038461-187.073523-219.868623-187.073522-127.792937 0-203.824709 64.696803-219.868622 187.073522-5.28593 40.314521-3.1455 83.644255 6.384063 128.779396 46.51246 220.482833 158.187033 353.598924 193.010888 390.786557z m-162.486505-514.708109c13.64291-104.080702 73.500482-154.687896 182.978789-154.687896 109.496919 0 169.335878 50.607194 182.960176 154.687896 4.746169 36.108112 2.754639 75.25005-5.881528 116.271844C651.435011 526.992311 550.741771 653.984914 516.587964 692.512642c-34.191032-38.564953-134.86566-165.613392-177.078649-365.659778-8.654779-41.021793-10.627697-80.145119-5.90014-116.271844z" fill="#49af08" p-id="1783"></path><path d="M516.587964 370.852646c75.398949 0 136.726903-61.327953 136.726902-136.726903s-61.327953-136.726903-136.726902-136.726903-136.726903 61.327953-136.726903 136.726903 61.327953 136.726903 136.726903 136.726903z m0-236.210335c54.850828 0 99.502045 44.632604 99.502045 99.502044s-44.632604 99.502045-99.502045 99.502045-99.502045-44.632604-99.502045-99.502045 44.651217-99.502045 99.502045-99.502044zM584.951415 691.823982a18.612429 18.612429 0 1 0 7.779995 36.405911 432.645909 432.645909 0 0 1 35.103041-5.825691 18.575204 18.575204 0 0 0 16.174201-20.752858 18.426305 18.426305 0 0 0-20.752858-16.174201c-13.456786 1.656506-26.355199 3.796935-38.304379 6.346839zM681.196285 699.380628a18.612429 18.612429 0 0 0 18.575204 17.812094l0.818947-0.018612 37.24347-1.544832a18.612429 18.612429 0 0 0 17.737645-19.431376c-0.465311-10.292673-10.032099-18.31463-19.431376-17.756257l-37.150408 1.544832a18.575204 18.575204 0 0 0-17.793482 19.394151zM417.532617 785.016413c-9.566788 7.221622-19.449988 14.164058-29.407637 20.603959a18.612429 18.612429 0 0 0 20.287547 31.231656 546.460912 546.460912 0 0 0 31.548067-22.111566c8.189469-6.197939 9.827362-17.867932 3.648036-26.076013a18.668266 18.668266 0 0 0-26.076013-3.648036zM832.34782 662.286057c-6.291001 4.411146-14.461857 7.612483-25.05233 9.790138a18.612429 18.612429 0 1 0 7.538034 36.461748c15.671665-3.238563 28.402566-8.412818 39.011651-15.876402l2.494066-1.824018a18.612429 18.612429 0 0 0-22.465202-29.686824l-1.526219 1.135358zM164.90612 807.816638a18.593816 18.593816 0 0 0-13.10315-22.818837 18.537979 18.537979 0 0 0-22.818838 13.10315 124.479924 124.479924 0 0 0-4.336696 32.72065c0.018612 3.648036 0.186124 7.296072 0.539761 10.925495a18.612429 18.612429 0 0 0 37.057346-3.796935 74.375266 74.375266 0 0 1-0.241962-11.87473c0.297799-6.030427 1.265645-12.191141 2.903539-18.258793zM831.938346 517.611647a109.441082 109.441082 0 0 0-44.409255 3.36885 18.612429 18.612429 0 1 0 10.106549 35.810313 72.64431 72.64431 0 0 1 29.314575-2.270716 18.612429 18.612429 0 1 0 4.988131-36.908447zM868.97708 609.81762a18.612429 18.612429 0 0 0 35.549739 10.981333c1.84263-5.918752 2.977989-11.930567 3.406074-17.923769a74.282204 74.282204 0 0 0-4.597269-30.561608 18.631041 18.631041 0 0 0-34.898305 12.935638c1.600669 4.318084 2.419616 8.692004 2.419616 12.95425l-0.055837 2.177655a41.971027 41.971027 0 0 1-1.824018 9.436501zM325.363869 840.611738c-10.906883 5.118418-22.018503 9.864587-33.018448 14.126834a18.612429 18.612429 0 1 0 13.419561 34.730792 555.860189 555.860189 0 0 0 35.419452-15.131905 18.612429 18.612429 0 0 0 8.933966-24.75453 18.556592 18.556592 0 0 0-24.754531-8.971191zM189.865387 763.128197a18.612429 18.612429 0 0 0 8.896741-2.270717c5.36038-2.922151 11.074395-4.746169 16.955923-5.378992 2.512678-0.297799 5.081193-0.297799 7.556646 0.037225a18.426305 18.426305 0 0 0 20.883145-16.006689 18.612429 18.612429 0 0 0-16.006689-20.883145 68.7357 68.7357 0 0 0-16.583674-0.148899 82.732246 82.732246 0 0 0-30.636058 9.697075 18.593816 18.593816 0 0 0 8.933966 34.954142zM185.994002 909.068252c4.020285 1.042296 8.115019 1.824018 12.172528 2.307941 4.764782 0.576985 9.529564 0.874784 14.312958 0.874784 5.82569 0 11.669993-0.409473 17.495683-1.153971a18.593816 18.593816 0 1 0-4.653107-36.927059 91.200902 91.200902 0 0 1-22.632713 0.279187 62.07245 62.07245 0 0 1-7.333297-1.395932 18.556592 18.556592 0 0 0-22.707164 13.326499 18.631041 18.631041 0 0 0 13.345112 22.688551z" fill="#49af08" p-id="1784"></path></svg>